<?xml version="1.0" encoding="UTF-8"?>
<!DOCTYPE svg PUBLIC "-//W3C//DTD SVG 1.1//EN" "http://www.w3.org/Graphics/SVG/1.1/DTD/svg11.dtd">
<svg xmlns="http://www.w3.org/2000/svg" xml:space="preserve" version="1.1" style="shape-rendering:geometricPrecision; text-rendering:geometricPrecision; image-rendering:optimizeQuality; fill-rule:evenodd; clip-rule:evenodd"
viewBox="0 0 9454.15 8522.35"
 xmlns:xlink="http://www.w3.org/1999/xlink">
 <defs>
  <style type="text/css">
   <![CDATA[
    .fil13 {fill:#FEFEFE}
    .fil12 {fill:#4A789C}
    .fil11 {fill:#98C6C6}
    .fil0 {fill:white}
    .fil9 {fill:#FEFEFE;fill-rule:nonzero;fill-opacity:0.701961}
    .fil4 {fill:#2B2A29;fill-rule:nonzero;fill-opacity:0.701961}
    .fil10 {fill:#336699;fill-rule:nonzero;fill-opacity:0.701961}
    .fil5 {fill:#669999;fill-rule:nonzero;fill-opacity:0.701961}
    .fil1 {fill:#99CCCC;fill-rule:nonzero;fill-opacity:0.701961}
    .fil2 {fill:url(#id0);fill-rule:nonzero;fill-opacity:0.701961}
    .fil8 {fill:url(#id1);fill-rule:nonzero;fill-opacity:0.701961}
    .fil6 {fill:url(#id2);fill-rule:nonzero;fill-opacity:0.701961}
    .fil3 {fill:url(#id3);fill-rule:nonzero;fill-opacity:0.701961}
    .fil7 {fill:url(#id4);fill-rule:nonzero;fill-opacity:0.701961}
   ]]>
  </style>
  <linearGradient id="id0" gradientUnits="userSpaceOnUse" x1="1053.8" y1="4839.92" x2="4493.26" y2="3795.26">
   <stop offset="0" style="stop-opacity:1; stop-color:white"/>
   <stop offset="1" style="stop-opacity:1; stop-color:#444343"/>
  </linearGradient>
  <linearGradient id="id1" gradientUnits="userSpaceOnUse" xlink:href="#id0" x1="4107.45" y1="2961.99" x2="7727.01" y2="4040.98">
  </linearGradient>
  <linearGradient id="id2" gradientUnits="userSpaceOnUse" xlink:href="#id0" x1="4826.13" y1="6119.79" x2="3820.3" y2="6583.41">
  </linearGradient>
  <linearGradient id="id3" gradientUnits="userSpaceOnUse" xlink:href="#id0" x1="3583.17" y1="2844.78" x2="7317.78" y2="4307.78">
  </linearGradient>
  <linearGradient id="id4" gradientUnits="userSpaceOnUse" xlink:href="#id0" x1="2489.91" y1="4178.32" x2="4469.89" y2="3913.68">
  </linearGradient>
 </defs>
 <g id="Слой_x0020_1">
  <metadata id="CorelCorpID_0Corel-Layer"/>
  <g id="_7874030848">
   <polygon class="fil0" points="706.79,4370.06 4859.08,217.77 9011.37,4370.06 4859.08,8522.35 "/>
   <g>
    <polygon class="fil1" points="4898.54,7025.33 4744.34,6573.87 3824.41,591.3 4142.19,1366.3 "/>
    <polygon class="fil2" points="4889.08,6966.26 4284.05,6871.28 657.98,1668.91 2128.17,1960.87 "/>
    <polygon class="fil1" points="4148.47,2790.8 4012.56,2747.39 3363,1420.65 3691.06,1540.21 "/>
    <polygon class="fil1" points="7090.84,3680.59 6997.86,3479.33 7835.65,1342.17 8043.18,1843.48 "/>
    <polygon class="fil3" points="4928.31,7026.03 4512.26,6576.62 6217.39,93.81 6431.63,897.24 "/>
    <polygon class="fil4" points="4863.25,6964.2 4224.22,5444.49 2853.22,5603.03 4816.85,3677.86 "/>
    <polygon class="fil5" points="4863.25,6964.2 4557.71,5177.48 4139.19,2629.33 4885.22,449.51 7780.02,1710.83 "/>
    <polygon class="fil5" points="5780.6,4640.38 5992.68,5371.67 6287.95,6415.42 4811.79,6971.06 "/>
    <polygon class="fil1" points="6212.47,4907.2 6333.64,5325 6502.35,5921.32 5658.98,6238.77 "/>
    <polygon class="fil6" points="4905.85,6960.52 4137.42,6711.41 3800.53,6191.27 4512.96,5639.45 "/>
    <polygon class="fil5" points="2449.71,6285.15 3151.4,5989.53 2206.96,4468.88 4744.35,5199.35 4877.17,6976.59 "/>
    <polygon class="fil5" points="2264.62,4266.53 910.58,4246.81 858.86,2635.87 2669.26,2068.17 4744.34,6573.87 "/>
    <polygon class="fil5" points="6812.37,4875.47 4867.53,6793.29 1868.97,6069.59 9454.15,3552.87 "/>
    <polygon class="fil5" points="6843.38,5107.49 4898.54,7025.33 -0,3837.06 5909.2,4797.09 8979.14,2213.13 "/>
    <polygon class="fil1" points="4905.85,6960.52 2178.48,4891.26 1158.54,4878.04 8910.03,1696.01 "/>
    <polygon class="fil7" points="4883.34,7007.21 3099.75,948.02 2315.76,2875.35 "/>
    <polygon class="fil8" points="4915.16,7002.97 5263.22,1830.78 6919.3,0 "/>
    <polygon class="fil9" points="2631.03,6268.12 2809.96,6192.73 2569.13,5804.96 3216.18,5991.23 3250.05,6444.44 "/>
    <polygon class="fil1" points="1439.37,4200.42 1367.45,3987.55 1793.38,4188.38 1889.6,4553.65 "/>
    <polygon class="fil1" points="6228.73,1549.97 6413.94,1422.76 6336.78,1887.3 6011.55,2079.41 "/>
    <polygon class="fil1" points="7281.37,4883.66 7369.34,4676.91 7553.64,5110.25 7382.4,5446.93 "/>
    <polygon class="fil1" points="2437.58,5725.96 2525.55,5519.19 2709.85,5952.53 2538.61,6289.22 "/>
    <polygon class="fil9" points="6346.72,5770.67 6072.63,5266.62 6787.3,5358.34 "/>
    <polygon class="fil9" points="5123.61,1679.4 4286.8,2981.33 4237.84,2262.46 "/>
    <polygon class="fil9" points="7097.86,2547.04 7201.34,1982.69 7699.68,2503.09 7382.13,2805.93 7140.83,2926.9 "/>
    <polygon class="fil9" points="4898.46,1823.38 4769.57,1607.1 5084.54,1634.99 5067.16,1826.76 5022.42,1936.43 "/>
    <polygon class="fil9" points="2419.64,3343.95 1853.68,3438.3 2470.66,3191.82 2566.58,2988.64 2762.33,3174.5 "/>
    <polygon class="fil9" points="3602.44,4165.25 2907.89,3297.4 3301.1,3440.09 3749.39,3809.95 3996.43,4379.66 "/>
    <polygon class="fil10" points="4863.25,6964.2 1918.04,3697.41 4954.71,700.09 8750.08,3918.04 "/>
    <polygon class="fil1" points="4863.25,6964.2 1886.66,5528.5 3645.33,3349.85 8568.29,3033.52 "/>
   </g>
   <path class="fil0" d="M4605.25 6220.25c208.67,0 377.83,169.16 377.83,377.83 0,208.66 -169.16,377.83 -377.83,377.83 -208.67,0 -377.83,-169.16 -377.83,-377.83 0,-208.67 169.16,-377.83 377.83,-377.83z"/>
   <path class="fil11" d="M4755.76 6352.55c46.12,0 83.5,37.38 83.5,83.49 0,46.12 -37.38,83.5 -83.5,83.5 -46.11,0 -83.5,-37.38 -83.5,-83.5 0,-46.11 37.38,-83.49 83.5,-83.49z"/>
  </g>
  <g id="_7874025920">
   <path class="fil12" d="M4220.2 4080.79c2002.08,224.88 2492.26,2803.58 200.58,2845.56 799.05,372.71 1925,57.75 2073.54,-900.52 174.05,-1122.89 -1267.58,-2057.25 -2274.12,-1945.04z"/>
   <path class="fil11" d="M5555.87 6890.5c51.77,53.48 1517.84,-829.79 456.04,-2000.59 497.49,926.18 215.85,1630.16 -456.04,2000.59z"/>
   <path class="fil11" d="M5580.16 6690.96c200.13,-97.86 1068.49,-984.76 239.38,-1855.01 296.86,674.63 334.87,1374.05 -239.38,1855.01z"/>
   <path class="fil12" d="M5200.79 4051.09c-221.77,-86.39 -455.78,-135.12 -681.83,-143.22 -240.85,-8.62 -605.33,44.98 -846.04,173.62 -133.32,71.26 -177.27,263.36 30.71,77.97 115.63,-103.07 171.02,-27.98 156.46,49.53 -41.25,219.78 118.66,276.94 234.4,176.81 131.38,-113.69 270.22,-42.68 210.72,144.16 -35.12,110.23 26.5,305.23 298.3,143.69 249.4,-148.24 233.3,8.67 200.9,166.73 -22.05,107.58 4.36,200.43 72.02,236.83 170.7,80.05 548.6,-505 774.53,-308.9 126.23,109.55 66.21,231.21 -22.61,290.22 -60.79,40.36 -178.06,24.19 -234.5,31.71 -104.59,13.91 -50.09,167.1 102.52,142.24 75.27,-12.27 246.31,-15.67 123.35,39.91 -24.93,11.27 -34.4,30.21 -29.34,41.22 14.6,31.81 114.1,4.87 131.53,-1.37 169.44,-60.66 441.34,-16.58 596.21,79.33 247.2,153.09 640.34,792.31 -186.82,1436.79 751.64,-447.76 580.54,-1252.61 432,-1568.44 -247.59,-526.33 -757.18,-973.02 -1362.52,-1208.81z"/>
   <path class="fil13" d="M5199.89 3987.06c-448.87,-174.87 -947.27,-197.26 -1331.71,-43.13 -87.93,35.25 -185.07,86.97 -254.61,152.73 -92.93,87.87 -122.74,236.71 96.01,17.85 110.82,-110.89 155.18,-20.11 140.45,58.32 -41.73,222.4 107.58,289.31 224.71,187.97 132.96,-115.04 286.5,-59.7 226.27,129.35 -35.53,111.57 16.14,310.67 291.2,147.18 252.4,-150.01 239.34,-11.48 206.55,148.48 -22.33,108.85 -17.87,233.89 50.6,270.74 172.76,81.01 575.3,-528.63 803.94,-330.18 127.75,110.87 73.22,238.43 -16.68,298.15 -61.51,40.86 -171.11,32.87 -228.24,40.45 -105.85,14.09 -128.28,177.1 77.26,136.26 29.31,-5.81 72.02,-8.36 101.24,-4.1 45.61,6.66 63.36,41.73 23.74,65.3 -23.8,14.16 -34.81,30.56 -29.69,41.71 14.76,32.2 115.46,4.93 133.09,-1.39 171.47,-61.4 459.86,-56.23 616.58,40.83 250.17,154.92 438.68,480.48 302.02,889.65 299.8,-890.67 -452.59,-1864.39 -1432.73,-2246.17z"/>
  </g>
 </g>
</svg>
